<svg width="34" height="40" viewBox="0 0 34 40" fill="none" xmlns="http://www.w3.org/2000/svg">
<path d="M30.6 40H3.4C2.4616 40 1.7 39.255 1.7 38.3333C1.7 32.8183 6.2747 28.3333 11.9 28.3333H22.1C27.7253 28.3333 32.3 32.8183 32.3 38.3333C32.3 39.255 31.5384 40 30.6 40ZM31.45 10H30.6C30.6 6.32333 27.5502 3.33333 23.8 3.33333H18.7V1.66667C18.7 0.745 17.9384 0 17 0C16.0616 0 15.3 0.745 15.3 1.66667V3.33333H10.2C6.4498 3.33333 3.4 6.32333 3.4 10H2.55C1.1441 10 0 11.1217 0 12.5V15.8333C0 17.2117 1.1441 18.3333 2.55 18.3333H3.4C3.4 22.01 6.4498 25 10.2 25H23.8C27.5502 25 30.6 22.01 30.6 18.3333H31.45C32.8559 18.3333 34 17.2117 34 15.8333V12.5C34 11.1217 32.8559 10 31.45 10ZM12.75 16.6667C11.3424 16.6667 10.2 15.5467 10.2 14.1667C10.2 12.7867 11.3424 11.6667 12.75 11.6667C14.1576 11.6667 15.3 12.7867 15.3 14.1667C15.3 15.5467 14.1576 16.6667 12.75 16.6667ZM21.25 16.6667C19.8424 16.6667 18.7 15.5467 18.7 14.1667C18.7 12.7867 19.8424 11.6667 21.25 11.6667C22.6576 11.6667 23.8 12.7867 23.8 14.1667C23.8 15.5467 22.6576 16.6667 21.25 16.6667Z" fill="#5800FF"/>
</svg>
