<svg width="40" height="40" viewBox="0 0 40 40" fill="none" xmlns="http://www.w3.org/2000/svg">
<g clip-path="url(#clip0_10_2)">
<path d="M5 38.3333C5 39.255 5.74667 40 6.66667 40C7.58667 40 8.33333 39.255 8.33333 38.3333C8.33333 34.6567 11.3233 31.6667 15 31.6667H25C28.6767 31.6667 31.6667 34.6567 31.6667 38.3333C31.6667 39.255 32.4133 40 33.3333 40C34.2533 40 35 39.255 35 38.3333C35 32.8183 30.515 28.3333 25 28.3333H15C9.485 28.3333 5 32.8183 5 38.3333ZM3.33333 12.5V15.8333C3.33333 17.2117 4.455 18.3333 5.83333 18.3333H6.66667C6.66667 22.01 9.65667 25 13.3333 25H26.6667C30.3433 25 33.3333 22.01 33.3333 18.3333H34.1667C35.545 18.3333 36.6667 17.2117 36.6667 15.8333V12.5C36.6667 11.1217 35.545 10 34.1667 10H33.3333C33.3333 6.32333 30.3433 3.33333 26.6667 3.33333H21.6667V1.66667C21.6667 0.745 20.92 0 20 0C19.08 0 18.3333 0.745 18.3333 1.66667V3.33333H13.3333C9.65667 3.33333 6.66667 6.32333 6.66667 10H5.83333C4.455 10 3.33333 11.1217 3.33333 12.5ZM10 10C10 8.16167 11.495 6.66667 13.3333 6.66667H26.6667C28.505 6.66667 30 8.16167 30 10V18.3333C30 20.1717 28.505 21.6667 26.6667 21.6667H13.3333C11.495 21.6667 10 20.1717 10 18.3333V10ZM24.1667 11.6667C25.5467 11.6667 26.6667 12.7867 26.6667 14.1667C26.6667 15.5467 25.5467 16.6667 24.1667 16.6667C22.7867 16.6667 21.6667 15.5467 21.6667 14.1667C21.6667 12.7867 22.7867 11.6667 24.1667 11.6667ZM15.8333 11.6667C17.2133 11.6667 18.3333 12.7867 18.3333 14.1667C18.3333 15.5467 17.2133 16.6667 15.8333 16.6667C14.4533 16.6667 13.3333 15.5467 13.3333 14.1667C13.3333 12.7867 14.4533 11.6667 15.8333 11.6667Z" fill="white"/>
</g>
<defs>
<clipPath id="clip0_10_2">
<rect width="40" height="40" fill="white" transform="matrix(-1 0 0 1 40 0)"/>
</clipPath>
</defs>
</svg>
